<?xml version="1.0" standalone="no"?>
<!DOCTYPE svg PUBLIC "-//W3C//DTD SVG 20010904//EN"
 "http://www.w3.org/TR/2001/REC-SVG-20010904/DTD/svg10.dtd">
<svg version="1.0" xmlns="http://www.w3.org/2000/svg"
 width="512.000000pt" height="512.000000pt" viewBox="0 0 512.000000 512.000000"
 preserveAspectRatio="xMidYMid meet">

<g transform="translate(0.000000,512.000000) scale(0.100000,-0.100000)"
fill="#000000" stroke="none">
<path d="M549 4833 c-55 -34 -59 -52 -59 -291 l0 -221 34 -35 c18 -20 41 -36
50 -36 15 0 16 -11 14 -82 l-3 -83 -48 -7 c-143 -20 -262 -142 -287 -294 -6
-35 -10 -499 -10 -1147 l0 -1088 -61 -72 c-109 -129 -179 -312 -179 -467 0
-289 200 -567 490 -683 152 -60 73 -58 1815 -55 l1590 3 47 22 c66 30 143 106
173 168 15 32 27 81 31 124 4 42 11 71 18 71 6 0 145 -25 309 -54 310 -56 328
-57 383 -21 34 22 50 59 64 152 12 77 11 85 -9 125 -25 53 -57 73 -147 93
-168 39 -172 34 54 76 114 21 217 46 235 56 18 10 41 36 51 57 17 35 18 46 7
115 -14 93 -36 139 -80 168 -45 30 -63 29 -286 -12 -104 -19 -190 -33 -192
-31 -2 2 31 26 74 54 103 68 130 94 144 141 14 46 6 73 -47 168 -38 68 -80
103 -125 103 -14 0 -28 2 -30 5 -3 2 0 44 7 92 7 49 13 130 13 181 1 98 -11
138 -48 164 -19 14 -19 15 0 83 33 120 20 309 -28 381 -21 33 -114 65 -205 71
l-76 6 -7 46 c-16 111 -105 230 -212 284 -60 31 -162 51 -213 42 l-37 -6 -6
118 c-5 126 -24 205 -57 240 -33 37 -142 65 -250 65 -109 1 -196 -18 -281 -62
l-57 -29 -17 42 c-41 102 -139 233 -196 263 -33 17 -72 18 -102 3 -12 -6 -107
-96 -212 -200 l-190 -189 -45 30 c-130 86 -304 83 -430 -8 -53 -38 -55 -39
-88 -25 -46 19 -148 27 -199 15 l-41 -9 -4 181 c-3 174 -4 183 -32 243 -49
107 -153 186 -265 202 l-46 6 -3 76 -3 77 35 20 c66 39 71 55 74 256 5 229 0
257 -44 301 l-35 35 -347 0 c-303 0 -350 -3 -373 -17z m541 -668 l0 -75 -175
0 -175 0 0 75 0 75 175 0 175 0 0 -75z m240 -255 c24 -14 58 -44 74 -68 29
-41 31 -50 34 -153 l4 -109 -79 0 c-86 0 -117 -13 -133 -56 -9 -24 -11 -24
-140 -24 -129 0 -131 0 -140 24 -20 54 -33 56 -309 56 l-254 0 6 100 c6 122
30 178 90 218 51 34 131 40 522 38 279 -1 280 -1 325 -26z m2221 -450 c32 -9
38 -16 48 -55 24 -95 4 -251 -40 -305 -10 -14 -35 -48 -54 -76 -30 -45 -39
-52 -77 -58 -24 -4 -67 -20 -97 -36 -30 -17 -55 -29 -56 -28 -1 2 -13 19 -28
39 l-26 35 94 94 c81 81 95 99 95 127 0 50 -37 80 -90 73 -8 -1 -61 -47 -117
-103 l-102 -101 -43 13 c-24 8 -49 15 -57 17 -18 6 -9 48 26 122 48 103 164
198 288 237 49 16 187 19 236 5z m384 -425 c74 -30 145 -129 145 -200 -1 -27
-7 -33 -65 -59 -35 -16 -83 -44 -105 -63 -22 -19 -47 -33 -54 -30 -7 3 -21 26
-29 51 -28 83 -94 159 -177 206 -12 7 -10 14 15 40 69 73 175 95 270 55z
m-899 -113 c22 -11 51 -33 65 -49 24 -25 59 -83 59 -98 0 -3 -103 -5 -230 -5
-156 0 -230 3 -230 11 0 32 66 111 115 136 72 38 153 40 221 5z m1316 -253
c46 -12 53 -32 52 -149 0 -64 -6 -99 -23 -142 l-22 -58 -95 0 -96 0 36 42 c45
52 49 97 10 127 -35 28 -66 26 -103 -5 l-30 -25 -25 50 c-14 27 -30 52 -36 56
-21 13 -9 35 33 59 83 49 215 69 299 45z m-2562 -51 c53 -16 120 -54 162 -90
29 -26 45 -52 68 -118 16 -47 30 -86 30 -87 0 -2 -24 -3 -53 -3 -51 0 -54 2
-112 61 -93 94 -129 106 -175 56 -24 -25 -26 -59 -4 -92 l16 -25 -84 0 -85 0
-11 38 c-20 66 -25 146 -13 204 l12 57 47 6 c26 3 54 7 62 9 25 4 103 -5 140
-16z m-506 -175 c23 -21 54 -47 68 -58 15 -11 29 -30 33 -42 l6 -23 -131 0
-131 0 6 23 c17 55 79 137 104 137 2 0 23 -17 45 -37z m-298 -69 c-3 -9 -6
-24 -6 -34 0 -13 -11 -20 -37 -25 -24 -4 -49 -19 -70 -42 -33 -34 -33 -35 -33
-136 0 -90 5 -146 25 -264 l6 -33 -88 0 c-183 0 -317 -58 -352 -152 -6 -16
-17 -28 -26 -28 -13 0 -15 45 -15 365 l0 365 301 0 c270 0 301 -2 295 -16z
m2806 -154 c5 -17 18 -35 28 -40 11 -6 142 -10 319 -10 l301 0 0 -53 c0 -68
-17 -204 -36 -288 l-15 -65 -200 -118 c-110 -65 -201 -117 -203 -115 -2 2 -13
24 -25 47 -72 142 -238 220 -386 183 -75 -19 -888 -331 -907 -348 -25 -22 -24
-85 2 -108 25 -23 62 -22 130 4 30 11 54 20 55 18 1 -1 9 -44 19 -96 21 -113
27 -126 64 -139 39 -13 90 11 99 46 3 15 -3 76 -14 137 -11 60 -20 111 -19
111 10 12 623 234 644 234 72 0 141 -41 171 -103 24 -50 171 -828 171 -906 0
-117 -82 -191 -211 -191 -42 0 -49 3 -54 23 -2 12 -14 70 -24 128 -11 59 -26
118 -32 132 -17 37 -60 53 -96 35 -44 -21 -50 -54 -29 -181 11 -62 21 -118 24
-125 3 -9 -25 -12 -121 -12 -94 0 -126 3 -130 13 -3 7 -11 49 -18 93 -14 89
-46 134 -94 134 -30 0 -75 -40 -75 -68 0 -20 18 -127 26 -155 5 -16 -12 -17
-293 -15 l-298 3 -23 120 c-13 68 -30 131 -41 145 -24 34 -82 39 -110 11 -25
-25 -26 -61 -6 -168 8 -43 15 -86 15 -95 0 -17 -28 -18 -453 -18 -450 0 -453
0 -497 22 -26 14 -57 41 -75 66 -26 38 -30 53 -30 110 0 77 25 128 78 161 32
19 327 135 331 129 2 -2 8 -32 14 -67 12 -69 31 -96 74 -106 22 -6 33 -1 58
23 37 38 37 45 5 188 -4 19 16 29 226 109 203 78 232 91 245 117 17 33 12 60
-19 88 -29 28 -53 25 -168 -20 -102 -39 -119 -41 -119 -15 0 7 -20 53 -45 102
-65 130 -196 266 -309 319 -19 10 -37 27 -40 39 -15 61 -94 113 -213 141 -51
12 -100 15 -200 11 l-133 -4 0 27 c0 15 -10 40 -21 55 -18 22 -28 26 -60 23
-27 -2 -40 1 -44 11 -3 7 -8 60 -12 117 l-6 104 1232 0 c785 0 1239 4 1251 10
10 5 23 23 28 40 l11 30 136 0 136 0 11 -30z m808 -561 c12 -23 20 -42 18 -44
-2 -1 -112 -75 -244 -163 -187 -124 -244 -167 -251 -189 -13 -36 -1 -67 32
-89 25 -16 40 -14 393 50 202 37 375 69 384 72 13 4 19 -5 25 -38 5 -24 7 -44
4 -45 -4 -1 -177 -34 -386 -72 -329 -61 -382 -73 -397 -92 -34 -40 -19 -98 29
-117 23 -9 544 -132 559 -132 7 0 4 -65 -5 -78 -12 -19 -639 94 -645 117 -12
40 -97 514 -93 524 2 7 535 331 554 336 2 1 12 -17 23 -40z"/>
</g>
</svg>
